<?xml version="1.0" encoding="utf-8"?>
<!-- Generator: Adobe Illustrator 14.0.0, SVG Export Plug-In . SVG Version: 6.00 Build 43363)  -->
<!DOCTYPE svg PUBLIC "-//W3C//DTD SVG 1.1//EN" "http://www.w3.org/Graphics/SVG/1.1/DTD/svg11.dtd">
<svg version="1.1" id="Layer_1" xmlns="http://www.w3.org/2000/svg" xmlns:xlink="http://www.w3.org/1999/xlink" x="0px" y="0px"
	 width="600px" height="300px" viewBox="0 0 600 300" enable-background="new 0 0 600 300" xml:space="preserve">
<path fill="#F4080B" d="M370.436,201.174c1.641-0.242,3.346-0.324,5.257,0.126c-0.005-0.003,0.052,0.015-0.002-0.003
	c5.729,1.57,5.281,5.532,10.913,8.627c2.557,1.406,5.854,2.284,9.258,1.982c4.505-0.396,7.433-2.354,12.649-1.67
	c-0.054-0.014,4.523,0.332,9.408,4.416c3.674,3.07,6.185,6.426,8.699,10.348c-3.705-7.195-8.445-13.931-16.147-16.631
	c-8.853-2.809-12.957,2.012-19.793-1.186c-6.148-2.783-4.902-7.918-12.459-11.115c-8.448-3.335-12.943,1.038-16.998-2.149
	c-1.451-1.161-1.263-2.642-4.42-6.184c3.056-0.937,5.768-2.507,9.552-2.241c-0.005-0.001,0.054,0.007-0.003-0.002
	c5.907,0.631,6.101,4.613,12.156,6.766c1.867,0.663,4.032,1.032,6.268,0.936c-1.236-1.864-2.808-3.398-4.441-4.52
	c-5.301-3.635-8.637-1.449-12.619-5.857c0.041,0.04,0-0.002,0.004,0c-2.439-2.904-2.764-6.021-3.802-9.045
	c4.722,0.473,5.808-0.549,7.601-0.058c4.962,1.405,4.066,7.613,11.729,12.488c7.03,4.233,10.451,0.208,16.316,3.546
	c6.605,3.651,5.118,9.805,12.594,15.316c6.711,4.644,14.947,4.52,22.946,3.288c-4.651,0.271-8.841,0.212-13.485-0.956
	c-6.175-1.551-9.145-5.051-9.103-5.016c-3.62-3.818-3.757-7.337-6.084-11.215c-1.757-2.932-4.405-5.082-7.045-6.324
	c-5.814-2.737-8.757-0.046-13.395-3.758c0.046,0.033,0-0.002,0.004,0c-1.487-1.281-2.424-2.709-3.191-4.18
	c1.484-0.738,3.082-1.343,5.038-1.506c-0.005,0,0.054-0.001-0.003-0.002c5.934-0.277,6.732,3.63,13.046,4.834
	c2.865,0.546,6.272,0.363,9.417-0.977c4.161-1.77,6.341-4.535,11.514-5.498c-0.056,0.006,4.405-1.08,10.312,1.294
	c4.443,1.785,7.867,4.2,11.472,7.153c-5.748-5.699-12.338-10.64-20.497-10.828c-9.287,0.065-11.701,5.918-19.19,4.988
	c-6.707-0.746-7.109-6.014-15.284-6.721c-9.065-0.561-11.99,4.988-16.83,3.209c-1.74-0.656-2.018-2.121-6.115-4.516
	c2.617-1.834,4.711-4.165,8.393-5.082c-0.005,0,0.053-0.01-0.004-0.002c5.812-1.225,7.228,2.503,13.652,2.678
	c1.98,0.055,4.154-0.264,6.25-1.045c-1.752-1.393-3.721-2.366-5.621-2.926c-6.164-1.819-8.662,1.289-13.811-1.672
	c0.05,0.025-0.002-0.003,0.003-0.001c-3.218-2.01-4.489-4.874-6.411-7.427c4.637-1.011,5.354-2.318,7.211-2.405
	c5.154-0.196,6.221,5.984,15.015,8.252c7.994,1.854,10.004-3.031,16.613-1.67c7.41,1.432,7.897,7.744,16.711,10.676
	c7.817,2.342,15.611-0.32,22.839-3.964c-4.341,1.694-8.343,2.933-13.12,3.258c-6.353,0.433-10.259-1.979-10.208-1.956
	c-4.622-2.515-5.841-5.818-9.251-8.787c-2.577-2.245-5.761-3.473-8.655-3.838c-6.376-0.807-8.343,2.662-13.9,0.564
	c0.055,0.018-0.001-0.002,0.004,0c-1.811-0.76-3.143-1.828-4.326-2.989c1.184-1.161,2.516-2.229,4.326-2.988
	c-0.005,0,0.051-0.019-0.004-0.001c5.559-2.097,7.524,1.372,13.9,0.565c2.895-0.366,6.078-1.593,8.655-3.838
	c3.41-2.969,4.629-6.272,9.251-8.786c-0.051,0.021,3.855-2.39,10.208-1.957c4.777,0.325,8.779,1.564,13.12,3.258
	c-7.228-3.644-15.021-6.306-22.839-3.963c-8.813,2.931-9.301,9.244-16.711,10.674c-6.609,1.362-8.62-3.523-16.613-1.669
	c-8.794,2.268-9.86,8.448-15.015,8.252c-1.856-0.086-2.574-1.395-7.211-2.404c1.922-2.554,3.193-5.418,6.411-7.427
	c-0.005,0.001,0.047-0.026-0.003-0.001c5.148-2.961,7.646,0.147,13.811-1.671c1.9-0.561,3.869-1.535,5.621-2.926
	c-2.096-0.782-4.27-1.101-6.25-1.046c-6.425,0.175-7.84,3.903-13.652,2.678c0.057,0.008-0.001-0.002,0.004-0.002
	c-3.682-0.917-5.775-3.248-8.393-5.083c4.098-2.394,4.375-3.859,6.115-4.515c4.84-1.779,7.765,3.77,16.83,3.209
	c8.175-0.707,8.577-5.975,15.284-6.721c7.49-0.929,9.903,4.923,19.19,4.988c8.159-0.188,14.75-5.128,20.496-10.827
	c-3.604,2.952-7.027,5.367-11.471,7.152c-5.907,2.375-10.368,1.289-10.312,1.293c-5.173-0.962-7.353-3.728-11.514-5.497
	c-3.145-1.34-6.552-1.523-9.417-0.976c-6.313,1.203-7.112,5.11-13.046,4.833c0.057,0-0.002-0.001,0.003-0.002
	c-1.956-0.163-3.554-0.767-5.038-1.505c0.768-1.47,1.704-2.898,3.191-4.179c-0.004,0.002,0.042-0.033-0.004,0
	c4.637-3.712,7.58-1.021,13.395-3.758c2.64-1.242,5.288-3.393,7.045-6.325c2.327-3.877,2.464-7.396,6.083-11.215
	c-0.041,0.036,2.929-3.464,9.104-5.016c4.645-1.167,8.834-1.226,13.484-0.956c-7.998-1.232-16.234-1.355-22.945,3.288
	c-7.476,5.511-5.988,11.665-12.594,15.316c-5.865,3.338-9.286-0.687-16.316,3.546c-7.663,4.875-6.768,11.083-11.729,12.488
	c-1.793,0.492-2.879-0.531-7.601-0.058c1.038-3.023,1.362-6.14,3.802-9.045c-0.004,0.003,0.037-0.04-0.004,0
	c3.982-4.408,7.318-2.223,12.619-5.858c1.634-1.12,3.205-2.655,4.441-4.52c-2.235-0.096-4.4,0.273-6.268,0.937
	c-6.056,2.152-6.25,6.135-12.156,6.766c0.057-0.009-0.002-0.001,0.003-0.003c-3.784,0.266-6.497-1.304-9.552-2.241
	c3.157-3.542,2.969-5.022,4.42-6.184c4.054-3.188,8.55,1.186,16.998-2.149c7.557-3.198,6.311-8.332,12.459-11.115
	c6.836-3.198,10.94,1.622,19.793-1.186c7.702-2.7,12.442-9.436,16.147-16.631c-2.516,3.921-5.025,7.277-8.699,10.348
	c-4.885,4.084-9.462,4.429-9.408,4.417c-5.217,0.683-8.145-1.273-12.649-1.67c-3.404-0.302-6.701,0.576-9.258,1.981
	c-5.633,3.095-5.184,7.058-10.913,8.628c0.054-0.018-0.003-0.001,0.002-0.003c-1.911,0.45-3.616,0.369-5.257,0.125
	c0.275-1.635,0.726-3.283,1.744-4.961c-0.004,0.003,0.029-0.044-0.004,0.001c3.264-4.963,6.894-3.312,11.578-7.713
	c2.126-1.997,3.98-4.861,4.745-8.192c1.015-4.406,0.059-7.795,2.32-12.546c-0.028,0.047,1.715-4.2,7.108-7.583
	c4.056-2.545,8.022-3.896,12.529-5.076c-7.988,1.3-15.859,3.728-20.807,10.218c-5.406,7.552-2.092,12.945-7.245,18.458
	c-4.546,4.987-9.044,2.216-14.421,8.415c-5.783,7.004-3.013,12.631-7.297,15.501c-1.553,1.022-2.902,0.385-7.247,2.293
	c0.054-3.196-0.602-6.26,0.821-9.777c-0.003,0.004,0.021-0.049-0.004,0.001c2.426-5.422,6.273-4.376,10.191-9.471
	c1.207-1.57,2.228-3.516,2.826-5.67c-2.154,0.599-4.1,1.619-5.67,2.827c-5.095,3.918-4.049,7.765-9.471,10.19
	c0.051-0.026-0.002,0,0.002-0.003c-3.518,1.422-6.582,0.768-9.777,0.821c1.908-4.345,1.271-5.694,2.293-7.247
	c2.871-4.285,8.498-1.515,15.502-7.296c6.199-5.377,3.428-9.875,8.414-14.421c5.514-5.154,10.907-1.838,18.459-7.245
	c6.49-4.948,8.918-12.818,10.218-20.807c-1.181,4.507-2.53,8.474-5.076,12.529c-3.384,5.394-7.63,7.137-7.583,7.108
	c-4.75,2.262-8.14,1.306-12.546,2.32c-3.331,0.765-6.195,2.619-8.192,4.746c-4.4,4.684-2.75,8.314-7.713,11.578
	c0.045-0.033-0.003,0,0.001-0.003c-1.679,1.018-3.325,1.468-4.961,1.744c-0.243-1.64-0.325-3.346,0.125-5.257
	c-0.002,0.004,0.015-0.052-0.003,0.002c1.57-5.729,5.532-5.281,8.628-10.913c1.405-2.556,2.284-5.854,1.981-9.258
	c-0.396-4.504-2.354-7.432-1.67-12.649c-0.013,0.054,0.332-4.524,4.416-9.409c3.071-3.674,6.427-6.184,10.348-8.699
	c-7.195,3.705-13.93,8.446-16.631,16.147c-2.808,8.853,2.012,12.957-1.186,19.793c-2.783,6.148-7.917,4.902-11.115,12.459
	c-3.334,8.448,1.039,12.943-2.148,16.998c-1.162,1.452-2.642,1.263-6.185,4.42c-0.937-3.056-2.506-5.768-2.24-9.552
	c-0.001,0.005,0.007-0.053-0.003,0.002c0.631-5.907,4.613-6.1,6.766-12.156c0.664-1.866,1.032-4.032,0.937-6.267
	c-1.864,1.236-3.399,2.807-4.52,4.441c-3.635,5.3-1.45,8.636-5.858,12.618c0.04-0.04-0.002,0,0.001-0.003
	c-2.905,2.439-6.022,2.763-9.045,3.802c0.472-4.722-0.55-5.808-0.059-7.601c1.406-4.962,7.614-4.066,12.488-11.729
	c4.233-7.03,0.208-10.451,3.547-16.316c3.651-6.606,9.805-5.119,15.315-12.594c4.645-6.711,4.521-14.947,3.289-22.946
	c0.27,4.651,0.211,8.841-0.956,13.484c-1.552,6.175-5.052,9.146-5.016,9.104c-3.819,3.619-7.338,3.757-11.215,6.083
	c-2.933,1.756-5.083,4.405-6.325,7.044c-2.737,5.815-0.046,8.757-3.758,13.395c0.033-0.046-0.002,0,0-0.003
	c-1.281,1.487-2.709,2.424-4.18,3.191c-0.738-1.485-1.342-3.082-1.505-5.038c-0.001,0.005-0.002-0.054-0.003,0.002
	c-0.276-5.934,3.631-6.732,4.834-13.045c0.547-2.865,0.363-6.272-0.977-9.417c-1.769-4.161-4.535-6.341-5.497-11.514
	c0.005,0.055-1.081-4.405,1.294-10.313c1.785-4.443,4.199-7.867,7.152-11.471c-5.698,5.747-10.639,12.337-10.827,20.496
	c0.065,9.287,5.917,11.701,4.988,19.191c-0.747,6.707-6.015,7.109-6.722,15.284c-0.561,9.065,4.988,11.989,3.209,16.83
	c-0.655,1.739-2.121,2.017-4.515,6.115c-1.835-2.617-4.166-4.711-5.083-8.392c0,0.005-0.01-0.053-0.001,0.003
	c-1.226-5.812,2.503-7.227,2.678-13.652c0.054-1.98-0.265-4.153-1.046-6.249c-1.392,1.751-2.365,3.72-2.926,5.62
	c-1.818,6.164,1.289,8.662-1.672,13.811c0.025-0.05-0.002,0.001-0.001-0.003c-2.009,3.218-4.873,4.489-7.427,6.411
	c-1.01-4.637-2.318-5.354-2.405-7.211c-0.196-5.153,5.985-6.22,8.252-15.015c1.854-7.994-3.031-10.003-1.669-16.613
	c1.431-7.411,7.743-7.898,10.675-16.711c2.342-7.818-0.32-15.612-3.964-22.839c1.694,4.34,2.934,8.343,3.259,13.12
	c0.433,6.352-1.979,10.259-1.957,10.208c-2.514,4.623-5.818,5.841-8.787,9.251c-2.245,2.577-3.473,5.761-3.838,8.655
	c-0.807,6.376,2.662,8.343,0.565,13.9c0.017-0.054-0.002,0.001-0.001-0.003c-0.76,1.81-1.828,3.143-2.989,4.327
	c-1.161-1.184-2.229-2.517-2.988-4.327c0,0.005-0.019-0.05-0.001,0.003c-2.097-5.558,1.372-7.524,0.565-13.9
	c-0.366-2.894-1.593-6.078-3.838-8.655c-2.969-3.411-6.272-4.629-8.787-9.251c0.022,0.051-2.39-3.855-1.957-10.208
	c0.325-4.777,1.564-8.78,3.258-13.12c-3.643,7.227-6.306,15.021-3.963,22.839c2.932,8.813,9.244,9.3,10.675,16.711
	c1.362,6.609-3.523,8.619-1.669,16.613c2.268,8.795,8.448,9.861,8.252,15.015c-0.086,1.857-1.395,2.574-2.405,7.211
	c-2.554-1.922-5.417-3.193-7.427-6.411c0.001,0.005-0.026-0.047-0.001,0.003c-2.961-5.149,0.147-7.647-1.672-13.811
	c-0.56-1.9-1.534-3.869-2.926-5.62c-0.782,2.096-1.1,4.269-1.046,6.249c0.175,6.425,3.903,7.839,2.678,13.652
	c0.009-0.056-0.001,0.002-0.001-0.003c-0.917,3.681-3.248,5.775-5.083,8.392c-2.394-4.098-3.859-4.375-4.515-6.115
	c-1.779-4.84,3.77-7.765,3.209-16.83c-0.707-8.175-5.975-8.578-6.721-15.284c-0.929-7.49,4.923-9.904,4.988-19.191
	c-0.188-8.159-5.129-14.749-10.827-20.496c2.952,3.604,5.368,7.028,7.153,11.471c2.375,5.908,1.289,10.368,1.293,10.313
	c-0.962,5.173-3.728,7.353-5.498,11.514c-1.339,3.145-1.522,6.552-0.976,9.417c1.204,6.313,5.11,7.112,4.833,13.045
	c0-0.056-0.002,0.002-0.002-0.002c-0.163,1.956-0.767,3.553-1.505,5.038c-1.47-0.767-2.898-1.704-4.179-3.191
	c0.002,0.004-0.033-0.042,0,0.003c-3.712-4.638-1.021-7.58-3.758-13.395c-1.242-2.639-3.393-5.288-6.325-7.044
	c-3.877-2.327-7.396-2.464-11.215-6.083c0.036,0.042-3.464-2.929-5.016-9.104c-1.167-4.644-1.226-8.833-0.956-13.484
	c-1.232,7.999-1.355,16.234,3.288,22.946c5.511,7.476,11.665,5.988,15.316,12.594c3.338,5.865-0.688,9.286,3.546,16.316
	c4.875,7.663,11.083,6.768,12.488,11.729c0.492,1.792-0.531,2.878-0.059,7.601c-3.022-1.039-6.139-1.362-9.044-3.802
	c0.003,0.004-0.04-0.037,0,0.003c-4.408-3.982-2.223-7.318-5.858-12.618c-1.12-1.634-2.655-3.206-4.52-4.441
	c-0.096,2.235,0.273,4.4,0.937,6.267c2.152,6.056,6.135,6.25,6.765,12.156c-0.009-0.056-0.001,0.002-0.002-0.002
	c0.266,3.784-1.304,6.496-2.241,9.552c-3.543-3.158-5.022-2.969-6.184-4.42c-3.188-4.054,1.186-8.55-2.149-16.998
	c-3.198-7.557-8.333-6.312-11.115-12.459c-3.198-6.836,1.622-10.941-1.186-19.793c-2.7-7.701-9.436-12.442-16.631-16.147
	c3.921,2.515,7.277,5.025,10.347,8.699c4.084,4.885,4.43,9.462,4.417,9.409c0.683,5.217-1.274,8.145-1.67,12.649
	c-0.302,3.404,0.577,6.702,1.982,9.258c3.095,5.632,7.058,5.185,8.628,10.913c-0.018-0.053-0.001,0.002-0.003-0.002
	c0.45,1.911,0.369,3.617,0.125,5.257c-1.635-0.275-3.283-0.726-4.961-1.744c0.003,0.003-0.044-0.03,0.001,0.003
	c-4.963-3.263-3.313-6.894-7.713-11.578c-1.997-2.126-4.861-3.981-8.192-4.746c-4.406-1.015-7.795-0.058-12.546-2.32
	c0.047,0.029-4.2-1.714-7.583-7.108c-2.545-4.056-3.895-8.022-5.076-12.529c1.3,7.988,3.728,15.859,10.218,20.807
	c7.552,5.407,12.944,2.091,18.458,7.245c4.987,4.546,2.216,9.044,8.415,14.421c7.004,5.782,12.631,3.012,15.501,7.296
	c1.021,1.553,0.385,2.902,2.293,7.247c-3.196-0.054-6.26,0.601-9.777-0.821c0.003,0.003-0.049-0.022,0.001,0.003
	c-5.423-2.425-4.376-6.273-9.471-10.19c-1.57-1.208-3.516-2.228-5.671-2.827c0.599,2.155,1.62,4.1,2.827,5.67
	c3.918,5.095,7.766,4.048,10.191,9.471c-0.026-0.05,0,0.002-0.003-0.001c1.422,3.517,0.767,6.581,0.821,9.777
	c-4.346-1.908-5.694-1.271-7.247-2.293c-4.285-2.87-1.515-8.497-7.296-15.501c-5.377-6.199-9.875-3.428-14.421-8.415
	c-5.154-5.514-1.838-10.907-7.245-18.458c-4.948-6.49-12.818-8.917-20.807-10.218c4.507,1.181,8.474,2.531,12.529,5.076
	c5.393,3.383,7.137,7.63,7.108,7.583c2.262,4.75,1.305,8.14,2.32,12.546c0.765,3.332,2.619,6.195,4.745,8.192
	c4.685,4.4,8.314,2.75,11.578,7.713c-0.034-0.045,0,0.002-0.003-0.001c1.018,1.678,1.468,3.326,1.744,4.961
	c-1.64,0.243-3.346,0.325-5.257-0.125c0.004,0.002-0.052-0.015,0.002,0.003c-5.729-1.57-5.281-5.533-10.913-8.628
	c-2.556-1.405-5.854-2.284-9.258-1.981c-4.504,0.396-7.432,2.353-12.649,1.67c0.054,0.013-4.524-0.333-9.409-4.417
	c-3.674-3.071-6.184-6.426-8.699-10.348c3.705,7.195,8.446,13.931,16.147,16.631c8.853,2.808,12.957-2.012,19.793,1.186
	c6.147,2.783,4.902,7.917,12.459,11.115c8.448,3.334,12.944-1.039,16.998,2.149c1.451,1.161,1.263,2.641,4.42,6.184
	c-3.056,0.936-5.768,2.506-9.552,2.24c0.004,0.001-0.053-0.006,0.002,0.003c-5.907-0.631-6.1-4.614-12.156-6.766
	c-1.867-0.664-4.032-1.033-6.267-0.937c1.235,1.865,2.807,3.399,4.441,4.52c5.301,3.635,8.637,1.45,12.619,5.858
	c-0.04-0.04,0,0.002-0.003,0c2.439,2.905,2.763,6.022,3.802,9.045c-4.722-0.472-5.809,0.55-7.601,0.058
	c-4.961-1.406-4.066-7.613-11.729-12.488c-7.029-4.233-10.451-0.208-16.316-3.546c-6.605-3.651-5.119-9.805-12.594-15.316
	c-6.711-4.644-14.947-4.52-22.946-3.288c4.651-0.27,8.84-0.212,13.484,0.956c6.175,1.551,9.145,5.052,9.104,5.016
	c3.619,3.819,3.756,7.337,6.083,11.215c1.756,2.932,4.405,5.083,7.044,6.325c5.815,2.737,8.757,0.046,13.395,3.758
	c-0.046-0.033,0,0.002-0.004,0c1.487,1.281,2.424,2.709,3.191,4.179c-1.485,0.738-3.082,1.343-5.038,1.505
	c0.004,0.001-0.054,0.002,0.002,0.002c-5.934,0.277-6.732-3.63-13.045-4.833c-2.865-0.547-6.272-0.363-9.417,0.976
	c-4.161,1.769-6.341,4.535-11.514,5.497c0.055-0.005-4.405,1.082-10.313-1.293c-4.443-1.785-7.867-4.2-11.471-7.152
	c5.747,5.698,12.337,10.639,20.496,10.827c9.287-0.065,11.701-5.917,19.191-4.988c6.707,0.747,7.109,6.014,15.285,6.721
	c9.065,0.561,11.989-4.988,16.83-3.209c1.739,0.656,2.017,2.122,6.115,4.515c-2.617,1.835-4.711,4.166-8.392,5.083
	c0.004,0-0.053,0.01,0.003,0.002c-5.812,1.225-7.227-2.503-13.652-2.678c-1.98-0.054-4.154,0.264-6.25,1.046
	c1.751,1.391,3.72,2.365,5.621,2.926c6.164,1.819,8.662-1.29,13.811,1.672c-0.05-0.026,0.001,0.002-0.003,0
	c3.218,2.009,4.489,4.873,6.411,7.427c-4.637,1.01-5.354,2.318-7.211,2.404c-5.154,0.196-6.22-5.984-15.015-8.252
	c-7.994-1.854-10.004,3.031-16.613,1.669c-7.41-1.431-7.898-7.743-16.71-10.674c-7.818-2.342-15.612,0.32-22.839,3.963
	c4.34-1.694,8.343-2.933,13.12-3.258c6.353-0.433,10.259,1.979,10.208,1.957c4.622,2.514,5.84,5.817,9.251,8.786
	c2.577,2.246,5.761,3.473,8.654,3.838c6.376,0.806,8.343-2.663,13.901-0.565c-0.054-0.017,0.001,0.002-0.003,0.001
	c1.81,0.759,3.143,1.828,4.327,2.988c-1.184,1.161-2.517,2.229-4.327,2.989c0.005-0.002-0.05,0.018,0.003,0
	c-5.558,2.098-7.524-1.371-13.901-0.564c-2.894,0.365-6.078,1.593-8.654,3.838c-3.411,2.969-4.629,6.272-9.251,8.787
	c0.051-0.021-3.855,2.389-10.208,1.956c-4.777-0.325-8.78-1.563-13.12-3.258c7.227,3.644,15.021,6.306,22.839,3.964
	c8.812-2.932,9.3-9.244,16.71-10.676c6.609-1.361,8.62,3.523,16.613,1.67c8.794-2.269,9.861-8.449,15.015-8.252
	c1.857,0.086,2.574,1.394,7.211,2.405c-1.922,2.553-3.193,5.417-6.411,7.427c0.004-0.001-0.047,0.026,0.003,0.001
	c-5.149,2.961-7.647-0.147-13.811,1.672c-1.9,0.56-3.869,1.533-5.621,2.926c2.096,0.781,4.269,1.1,6.25,1.045
	c6.425-0.175,7.839-3.902,13.652-2.678c-0.056-0.008,0.001,0.002-0.003,0.002c3.681,0.917,5.775,3.248,8.392,5.083
	c-4.098,2.394-4.375,3.858-6.115,4.515c-4.841,1.779-7.765-3.77-16.83-3.209c-8.176,0.707-8.578,5.975-15.285,6.721
	c-7.49,0.93-9.904-4.923-19.191-4.988c-8.159,0.189-14.749,5.129-20.496,10.828c3.604-2.953,7.028-5.368,11.471-7.153
	c5.908-2.374,10.368-1.288,10.313-1.294c5.173,0.963,7.353,3.729,11.514,5.498c3.145,1.34,6.552,1.522,9.417,0.977
	c6.313-1.204,7.112-5.111,13.045-4.834c-0.056,0,0.002,0.002-0.002,0.002c1.956,0.163,3.553,0.768,5.038,1.506
	c-0.767,1.471-1.704,2.898-3.191,4.18c0.004-0.002-0.042,0.033,0.004,0c-4.638,3.712-7.58,1.021-13.395,3.758
	c-2.639,1.242-5.288,3.393-7.044,6.324c-2.327,3.878-2.464,7.396-6.083,11.215c0.042-0.035-2.929,3.465-9.104,5.016
	c-4.644,1.168-8.833,1.227-13.484,0.956c7.999,1.231,16.234,1.355,22.946-3.288c7.475-5.512,5.988-11.665,12.594-15.316
	c5.865-3.338,9.287,0.688,16.316-3.546c7.664-4.875,6.768-11.083,11.729-12.488c1.792-0.491,2.879,0.53,7.601,0.058
	c-1.039,3.023-1.363,6.141-3.802,9.045c0.003-0.002-0.037,0.04,0.003,0c-3.982,4.408-7.318,2.223-12.619,5.857
	c-1.634,1.121-3.205,2.655-4.441,4.52c2.235,0.097,4.4-0.272,6.267-0.936c6.056-2.152,6.25-6.135,12.156-6.766
	c-0.056,0.009,0.002,0.001-0.002,0.002c3.784-0.266,6.496,1.305,9.552,2.241c-3.157,3.542-2.969,5.022-4.42,6.184
	c-4.054,3.188-8.55-1.186-16.998,2.149c-7.557,3.197-6.312,8.332-12.459,11.115c-6.836,3.197-10.941-1.623-19.793,1.186
	c-7.702,2.7-12.442,9.436-16.147,16.631c2.516-3.922,5.025-7.277,8.699-10.348c4.885-4.084,9.462-4.43,9.409-4.416
	c5.217-0.684,8.145,1.273,12.649,1.67c3.404,0.302,6.702-0.576,9.258-1.982c5.632-3.095,5.185-7.057,10.913-8.627
	c-0.053,0.018,0.002,0-0.002,0.003c1.911-0.45,3.617-0.368,5.257-0.126c-0.275,1.636-0.726,3.283-1.744,4.961
	c0.003-0.003-0.03,0.045,0.003,0c-3.264,4.963-6.894,3.312-11.578,7.713c-2.126,1.996-3.981,4.861-4.745,8.191
	c-1.015,4.406-0.059,7.796-2.32,12.547c0.029-0.048-1.714,4.199-7.108,7.583c-4.056,2.545-8.022,3.896-12.529,5.075
	c7.988-1.3,15.859-3.727,20.807-10.217c5.406-7.553,2.091-12.945,7.245-18.459c4.546-4.986,9.044-2.216,14.421-8.414
	c5.782-7.005,3.012-12.631,7.296-15.502c1.553-1.021,2.901-0.385,7.247-2.293c-0.054,3.195,0.601,6.26-0.821,9.776
	c0.003-0.004-0.022,0.049,0.003-0.001c-2.425,5.422-6.273,4.375-10.191,9.471c-1.208,1.57-2.228,3.516-2.827,5.67
	c2.155-0.599,4.101-1.619,5.671-2.827c5.095-3.918,4.048-7.766,9.471-10.19c-0.05,0.025,0.002,0-0.001,0.003
	c3.517-1.422,6.581-0.767,9.777-0.821c-1.908,4.346-1.271,5.694-2.293,7.248c-2.871,4.283-8.498,1.514-15.501,7.296
	c-6.199,5.377-3.428,9.875-8.415,14.421c-5.514,5.154-10.906,1.839-18.458,7.245c-6.49,4.948-8.917,12.819-10.218,20.807
	c1.181-4.507,2.531-8.474,5.076-12.528c3.384-5.395,7.631-7.137,7.583-7.109c4.75-2.262,8.14-1.305,12.546-2.319
	c3.331-0.765,6.195-2.619,8.192-4.745c4.4-4.686,2.75-8.314,7.713-11.578c-0.045,0.033,0.002,0-0.001,0.003
	c1.678-1.019,3.326-1.468,4.961-1.743c0.243,1.641,0.324,3.346-0.125,5.256c0.002-0.004-0.015,0.053,0.003-0.002
	c-1.57,5.729-5.533,5.281-8.628,10.914c-1.405,2.557-2.284,5.854-1.982,9.258c0.397,4.504,2.354,7.432,1.67,12.648
	c0.013-0.054-0.333,4.524-4.417,9.409c-3.07,3.674-6.426,6.184-10.347,8.699c7.195-3.706,13.931-8.446,16.631-16.147
	c2.808-8.853-2.012-12.957,1.186-19.793c2.783-6.148,7.917-4.902,11.115-12.46c3.334-8.448-1.039-12.943,2.149-16.997
	c1.161-1.451,2.641-1.264,6.184-4.421c0.937,3.056,2.506,5.769,2.241,9.552c0.001-0.004-0.006,0.054,0.002-0.002
	c-0.63,5.906-4.613,6.1-6.765,12.156c-0.664,1.867-1.033,4.031-0.937,6.267c1.864-1.235,3.399-2.807,4.52-4.44
	c3.635-5.301,1.45-8.637,5.858-12.619c-0.04,0.04,0.002,0,0,0.004c2.905-2.439,6.022-2.764,9.045-3.803
	c-0.472,4.723,0.55,5.809,0.058,7.602c-1.406,4.961-7.613,4.066-12.488,11.729c-4.233,7.029-0.208,10.45-3.546,16.315
	c-3.651,6.605-9.805,5.119-15.316,12.594c-4.644,6.712-4.52,14.947-3.288,22.946c-0.27-4.651-0.212-8.841,0.956-13.484
	c1.551-6.175,5.052-9.146,5.016-9.104c3.819-3.619,7.337-3.757,11.215-6.083c2.932-1.757,5.083-4.406,6.325-7.045
	c2.737-5.814,0.046-8.758,3.758-13.395c-0.033,0.045,0.002-0.001,0,0.004c1.281-1.488,2.709-2.425,4.179-3.191
	c0.738,1.484,1.343,3.082,1.505,5.037c0-0.004,0.002,0.055,0.002-0.002c0.277,5.934-3.63,6.732-4.833,13.045
	c-0.546,2.865-0.363,6.273,0.976,9.418c1.769,4.16,4.535,6.34,5.498,11.514c-0.005-0.056,1.082,4.404-1.293,10.312
	c-1.785,4.443-4.201,7.867-7.153,11.471c5.698-5.747,10.639-12.337,10.827-20.496c-0.065-9.287-5.917-11.701-4.988-19.191
	c0.747-6.707,6.014-7.109,6.721-15.284c0.561-9.065-4.988-11.989-3.209-16.829c0.656-1.74,2.122-2.018,4.515-6.115
	c1.835,2.617,4.166,4.711,5.083,8.393c0-0.006,0.01,0.052,0.001-0.004c1.226,5.812-2.502,7.228-2.678,13.652
	c-0.054,1.98,0.264,4.153,1.046,6.249c1.392-1.751,2.366-3.72,2.926-5.62c1.819-6.164-1.29-8.662,1.672-13.811
	c-0.025,0.05,0.002-0.002,0.001,0.003c2.009-3.218,4.873-4.489,7.427-6.411c1.01,4.637,2.318,5.354,2.405,7.211
	c0.196,5.153-5.984,6.22-8.252,15.014c-1.854,7.994,3.031,10.004,1.669,16.613c-1.431,7.411-7.743,7.898-10.675,16.711
	c-2.342,7.818,0.32,15.612,3.963,22.839c-1.694-4.34-2.933-8.343-3.258-13.12c-0.433-6.352,1.979-10.258,1.957-10.207
	c2.514-4.623,5.818-5.841,8.787-9.252c2.246-2.576,3.473-5.76,3.838-8.654c0.806-6.376-2.663-8.343-0.565-13.9
	c-0.017,0.054,0.002-0.001,0.001,0.004c0.759-1.811,1.828-3.143,2.988-4.327c1.161,1.185,2.229,2.517,2.989,4.327
	c-0.001-0.006,0.018,0.05,0.001-0.004c2.097,5.558-1.372,7.524-0.565,13.9c0.365,2.895,1.593,6.078,3.838,8.654
	c2.969,3.411,6.273,4.629,8.787,9.252c-0.021-0.051,2.39,3.855,1.957,10.207c-0.325,4.777-1.564,8.78-3.258,13.12
	c3.643-7.227,6.305-15.021,3.963-22.839c-2.932-8.812-9.244-9.3-10.675-16.711c-1.362-6.609,3.522-8.619,1.669-16.613
	c-2.268-8.794-8.448-9.86-8.252-15.014c0.086-1.857,1.395-2.574,2.405-7.211c2.554,1.922,5.418,3.193,7.427,6.411
	c-0.001-0.005,0.026,0.047,0.001-0.004c2.961,5.149-0.146,7.647,1.672,13.812c0.561,1.9,1.534,3.869,2.926,5.62
	c0.781-2.096,1.1-4.269,1.046-6.249c-0.175-6.425-3.903-7.84-2.678-13.652c-0.009,0.056,0.001-0.002,0.001,0.004
	c0.918-3.682,3.248-5.775,5.083-8.393c2.394,4.098,3.859,4.375,4.515,6.115c1.779,4.84-3.77,7.764-3.209,16.829
	c0.707,8.175,5.975,8.577,6.722,15.284c0.929,7.49-4.923,9.904-4.988,19.191c0.188,8.159,5.129,14.749,10.827,20.496
	c-2.952-3.604-5.367-7.027-7.152-11.471c-2.375-5.908-1.289-10.368-1.294-10.312c0.962-5.174,3.728-7.354,5.497-11.514
	c1.34-3.145,1.523-6.553,0.977-9.418c-1.203-6.312-5.11-7.111-4.834-13.045c0.001,0.057,0.002-0.002,0.003,0.002
	c0.163-1.955,0.767-3.553,1.505-5.037c1.471,0.767,2.898,1.704,4.18,3.19c-0.002-0.004,0.033,0.042,0-0.003
	c3.713,4.637,1.021,7.579,3.758,13.395c1.242,2.639,3.393,5.288,6.325,7.045c3.877,2.326,7.396,2.464,11.215,6.083
	c-0.036-0.042,3.464,2.929,5.016,9.104c1.167,4.644,1.226,8.833,0.956,13.484c1.231-7.999,1.354-16.234-3.289-22.946
	c-5.511-7.475-11.664-5.988-15.315-12.594c-3.339-5.865,0.687-9.286-3.547-16.316c-4.874-7.662-11.082-6.768-12.488-11.729
	c-0.491-1.793,0.531-2.879,0.059-7.602c3.022,1.039,6.14,1.363,9.045,3.803c-0.003-0.004,0.04,0.036-0.001-0.004
	c4.408,3.982,2.224,7.318,5.858,12.618c1.12,1.634,2.655,3.206,4.52,4.441c0.097-2.235-0.272-4.399-0.937-6.267
	c-2.152-6.057-6.135-6.25-6.766-12.156c0.01,0.056,0.002-0.002,0.003,0.002c-0.266-3.783,1.304-6.496,2.24-9.552
	c3.543,3.157,5.022,2.97,6.185,4.421c3.188,4.054-1.186,8.549,2.148,16.997c3.198,7.558,8.332,6.312,11.115,12.46
	c3.197,6.836-1.622,10.939,1.186,19.793c2.701,7.701,9.436,12.442,16.631,16.147c-3.921-2.516-7.276-5.025-10.348-8.699
	c-4.084-4.885-4.429-9.462-4.416-9.409c-0.684-5.217,1.273-8.145,1.67-12.648c0.303-3.404-0.576-6.701-1.981-9.258
	c-3.096-5.633-7.058-5.185-8.628-10.914c0.018,0.055,0.001-0.002,0.003,0.002c-0.45-1.91-0.368-3.616-0.125-5.256
	c1.636,0.275,3.282,0.725,4.961,1.743c-0.003-0.003,0.044,0.03-0.001-0.003c4.963,3.264,3.312,6.893,7.713,11.578
	c1.997,2.125,4.861,3.98,8.192,4.745c4.406,1.015,7.796,0.058,12.546,2.319c-0.047-0.027,4.199,1.715,7.583,7.109
	c2.546,4.055,3.896,8.021,5.076,12.528c-1.3-7.987-3.728-15.858-10.218-20.807c-7.552-5.406-12.945-2.091-18.459-7.245
	c-4.986-4.546-2.215-9.044-8.414-14.421c-7.004-5.782-12.631-3.013-15.502-7.296c-1.021-1.553-0.385-2.902-2.293-7.248
	c3.195,0.055,6.26-0.601,9.777,0.821c-0.004-0.003,0.049,0.022-0.002-0.003c5.422,2.425,4.376,6.273,9.471,10.19
	c1.57,1.208,3.516,2.228,5.67,2.827c-0.599-2.154-1.619-4.1-2.826-5.67c-3.918-5.096-7.766-4.049-10.191-9.471
	c0.025,0.05,0.001-0.003,0.004,0.001c-1.422-3.517-0.768-6.581-0.821-9.776c4.345,1.908,5.694,1.271,7.247,2.293
	c4.284,2.87,1.514,8.497,7.297,15.502c5.377,6.198,9.875,3.428,14.421,8.414c5.153,5.514,1.838,10.906,7.245,18.459
	c4.947,6.49,12.818,8.917,20.807,10.217c-4.507-1.18-8.474-2.53-12.529-5.075c-5.394-3.384-7.137-7.631-7.108-7.583
	c-2.262-4.751-1.306-8.141-2.32-12.547c-0.765-3.33-2.618-6.195-4.745-8.191c-4.685-4.4-8.314-2.75-11.578-7.713
	c0.033,0.045,0-0.003,0.004,0C371.16,204.457,370.711,202.81,370.436,201.174z"/>
</svg>
